<?xml version="1.0" encoding="utf-8"?>
<svg version="1.1" id="Layer_1" xmlns="http://www.w3.org/2000/svg" xmlns:xlink="http://www.w3.org/1999/xlink" x="0px" y="0px"
	 width="180px" height="100px" viewBox="0 0 180 100" enable-background="new 0 0 180 100" xml:space="preserve">
<g>
	<g>
		<path fill="#3D3D44" d="M100.47,88.21c-0.711,0-1.716-0.069-3.014-0.204c-1.298-0.14-2.44-0.4-3.434-0.786v-8.415
			c1.214,0.386,4.001,0.808,5.706,0.808c2.314,0,3.941-0.677,4.881-2.025c0.933-1.352,1.405-3.379,1.405-6.076V29.589h10v42.085
			c0,5.622-1.334,9.782-4.007,12.485C109.334,86.858,105.488,88.21,100.47,88.21z"/>
		<path fill="#3D3D44" d="M117.092,17.346c0,1.878-0.604,3.364-1.818,4.468c-1.215,1.101-2.644,1.651-4.301,1.651
			c-1.71,0-3.17-0.55-4.384-1.651c-1.208-1.104-1.818-2.59-1.818-4.468c0-1.926,0.61-3.445,1.818-4.546
			c1.214-1.1,2.674-1.654,4.384-1.654c1.657,0,3.086,0.554,4.301,1.654C116.487,13.901,117.092,15.42,117.092,17.346z"/>
	</g>
	<path fill="#C2C2C2" d="M157.32,65.637c2.649,0,4.575-0.313,5.789-0.95c1.209-0.632,1.818-1.72,1.818-3.266
		c0-1.43-0.646-2.614-1.943-3.553c-1.298-0.939-3.434-1.956-6.406-3.063c-1.818-0.658-3.486-1.364-5.006-2.105
		c-1.514-0.745-2.823-1.615-3.924-2.605c-1.106-0.993-1.974-2.192-2.607-3.598c-0.634-1.405-0.951-3.128-0.951-5.167
		c0-3.968,1.46-7.097,4.384-9.384c2.919-2.285,6.891-3.433,11.909-3.433c2.529,0,4.958,0.239,7.272,0.706
		c2.314,0.467,4.056,0.921,5.21,1.364l-0.114,8.795c-1.101-0.497-4.217-1.642-5.921-2.058c-1.711-0.413-3.696-0.619-5.951-0.619
		c-2.04,0-3.696,0.344-4.965,1.035c-1.268,0.688-1.901,1.75-1.901,3.182c0,0.718,0.125,1.352,0.371,1.902
		c0.251,0.55,0.676,1.062,1.285,1.531c0.604,0.466,1.406,0.936,2.398,1.406c0.987,0.466,2.201,0.948,3.637,1.444
		c2.368,0.882,4.378,1.75,6.035,2.604c1.65,0.855,3.021,1.818,4.091,2.895c1.076,1.073,1.86,2.303,2.356,3.679
		c0.496,1.378,0.748,3.032,0.748,4.961c0,4.136-1.531,7.264-4.594,9.384c-3.057,2.121-7.429,3.186-13.104,3.186
		c-3.804,0-6.86-0.32-9.175-0.951c-2.314-0.634-3.941-1.146-4.881-1.531v-9.082c1.489,0.606,5.007,1.917,7.069,2.467
		C152.32,65.362,154.677,65.637,157.32,65.637z"/>
	<path fill="#3D3D44" d="M45.552,63.696c-2.315,0.745-5.317,1.115-9.014,1.115c-3.086,0-5.73-0.508-7.937-1.531
		c-2.201-1.017-4.019-2.452-5.455-4.297c-1.436-1.846-2.494-4.037-3.182-6.573c-0.693-2.533-1.035-5.32-1.035-8.353
		c0-3.416,0.443-6.418,1.322-9.011c0.879-2.593,2.111-4.74,3.679-6.45c1.573-1.708,3.433-2.991,5.58-3.846
		c2.153-0.852,4.468-1.28,6.95-1.28c2.865,0,5.526,0.371,7.979,1.119c2.219,0.669,3.954,1.381,5.251,2.126V16.676
		c-0.622-0.248-1.31-0.494-2.069-0.73c-1.436-0.439-3.116-0.837-5.042-1.196c-1.932-0.359-4.079-0.539-6.454-0.539
		c-3.912,0-7.578,0.661-10.993,1.983c-3.421,1.325-6.394,3.266-8.93,5.829c-2.536,2.566-4.534,5.694-5.993,9.384
		c-1.465,3.696-2.195,7.937-2.195,12.733s0.634,9.043,1.902,12.734c1.268,3.693,3.086,6.821,5.46,9.384
		c2.369,2.563,5.264,4.507,8.679,5.829c3.415,1.324,7.279,1.982,11.573,1.982c2.207,0,4.276-0.122,6.203-0.371
		c1.932-0.245,3.666-0.577,5.209-0.992c0.975-0.258,1.836-0.526,2.649-0.802v-9.737C48.572,62.658,47.203,63.167,45.552,63.696z"/>
	<path fill="#3D3D44" d="M96.17,42.033c-0.855-2.784-2.082-5.167-3.679-7.15c-1.603-1.985-3.594-3.517-5.993-4.59
		s-5.114-1.612-8.146-1.612c-2.04,0-3.899,0.248-5.58,0.745c-1.681,0.494-3.104,1.047-4.259,1.654v-16.87H58.507v57.302
		c1.986,0.604,4.48,1.154,7.482,1.65c3.002,0.497,6.161,0.748,9.468,0.748c3.415,0,6.477-0.526,9.181-1.573
		c2.698-1.047,5-2.563,6.902-4.546c1.902-1.985,3.361-4.369,4.385-7.153c1.017-2.781,1.524-5.912,1.524-9.384
		C97.449,47.892,97.025,44.817,96.17,42.033z M84.058,61.462c-2.099,2.513-4.988,3.763-8.685,3.763c-1.597,0-2.96-0.066-4.091-0.203
		c-1.13-0.138-2.052-0.293-2.77-0.458V39.676c0.879-0.607,2.052-1.157,3.511-1.654c1.465-0.496,3.02-0.742,4.671-0.742
		c3.643,0,6.298,1.238,7.979,3.72c1.687,2.479,2.524,5.844,2.524,10.084C87.198,55.499,86.151,58.956,84.058,61.462z"/>
	<rect x="125.399" y="6.263" fill="#3178C6" width="9.384" height="86.833"/>
</g>
</svg>
