<svg xmlns="http://www.w3.org/2000/svg" xml:space="preserve" viewBox="50 100 200 195">
  <path fill="#DFDFD6" d="m185.755 249.656-1.756-29.144c-.646-10.003-2.816-13.041-11.956-13.041v-19.57c9.139 0 11.309-3.048 11.956-13.051l1.756-29.139c.838-12.863 6.86-20.262 15.832-22.935-14.796-10.338-32.764-16.444-52.187-16.444-50.456 0-91.353 40.897-91.353 91.343 0 50.456 40.897 91.358 91.353 91.358 19.423 0 37.391-6.106 52.202-16.444-8.987-2.671-15.009-10.06-15.847-22.933z"/>
  <path fill="#E92328" d="M221.059 141.145h-2.476c-7.625 0-10.875 3.482-11.531 15.438l-1.085 21.741c-.434 8.049-3.048 16.532-14.131 19.354 11.083 2.831 13.697 11.314 14.131 19.354l1.085 21.741c.656 11.97 3.906 15.442 11.531 15.442h2.476c12.291-15.561 19.689-35.171 19.689-56.537s-7.398-40.968-19.689-56.533z"/>
</svg>
