<svg xmlns="http://www.w3.org/2000/svg" xml:space="preserve" viewBox="50 100 485 195">
  <path fill="#3D3D44" d="m185.755 249.656-1.756-29.144c-.646-10.003-2.816-13.041-11.956-13.041v-19.57c9.139 0 11.309-3.048 11.956-13.051l1.756-29.139c.838-12.863 6.86-20.262 15.832-22.935-14.796-10.338-32.764-16.444-52.187-16.444-50.456 0-91.353 40.897-91.353 91.343 0 50.456 40.897 91.358 91.353 91.358 19.423 0 37.391-6.106 52.202-16.444-8.987-2.671-15.009-10.06-15.847-22.933z"/>
  <path fill="#ec1218" d="M221.059 141.145h-2.476c-7.625 0-10.875 3.482-11.531 15.438l-1.085 21.741c-.434 8.049-3.048 16.532-14.131 19.354 11.083 2.831 13.697 11.314 14.131 19.354l1.085 21.741c.656 11.97 3.906 15.442 11.531 15.442h2.476c12.291-15.561 19.689-35.171 19.689-56.537s-7.398-40.968-19.689-56.533z"/>
  <g fill="#3D3D44" transform="translate(10)">
    <path d="M425.265 270.411c-1.179 0-2.836-.118-4.977-.346-2.136-.227-4.02-.661-5.657-1.292v-13.879c2.002.641 6.594 1.332 9.41 1.332 3.817 0 6.496-1.115 8.045-3.335 1.543-2.229 2.317-5.578 2.317-10.031v-69.134h16.498v69.405c0 9.277-2.204 16.144-6.614 20.602-4.409 4.449-10.746 6.678-19.022 6.678z"/>
    <path d="M452.678 153.534c0 3.092-1.002 5.543-3.004 7.364-1.998 1.82-4.36 2.727-7.088 2.727-2.821 0-5.229-.907-7.23-2.727-1.997-1.82-2.999-4.271-2.999-7.364 0-3.181 1.002-5.682 2.999-7.497 2.002-1.82 4.409-2.732 7.23-2.732 2.728 0 5.09.913 7.088 2.732 2.002 1.815 3.004 4.316 3.004 7.497z"/>
    <path d="M488.722 233.178c4.364 0 7.541-.522 9.543-1.568 1.998-1.045 2.999-2.841 2.999-5.386 0-2.362-1.065-4.315-3.201-5.864-2.141-1.544-5.662-3.226-10.569-5.045-2.999-1.091-5.751-2.249-8.251-3.478-2.501-1.229-4.661-2.658-6.477-4.296-1.82-1.638-3.25-3.61-4.296-5.929-1.046-2.317-1.568-5.159-1.568-8.522 0-6.55 2.407-11.709 7.226-15.477 4.818-3.773 11.363-5.662 19.64-5.662 4.178 0 8.183.39 12 1.159 3.817.774 6.684 1.524 8.592 2.254l-.188 14.5c-1.814-.819-6.954-2.708-9.771-3.394-2.816-.681-6.091-1.016-9.814-1.016-3.364 0-6.092.562-8.183 1.701-2.092 1.14-3.137 2.886-3.137 5.253 0 1.179.202 2.225.611 3.137.409.908 1.114 1.746 2.116 2.521.996.774 2.317 1.544 3.955 2.318 1.633.774 3.635 1.563 5.998 2.382 3.906 1.46 7.226 2.891 9.953 4.301 2.727 1.411 4.98 2.999 6.752 4.77 1.771 1.771 3.067 3.798 3.887 6.071.818 2.269 1.228 5.001 1.228 8.178 0 6.821-2.525 11.98-7.571 15.477-5.045 3.502-12.251 5.253-21.612 5.253-6.273 0-11.319-.527-15.137-1.568-3.817-1.04-6.5-1.889-8.044-2.521v-14.983c2.451 1.006 8.251 3.166 11.659 4.074 3.408.907 7.294 1.36 11.66 1.36z"/>
    <path d="M334.69 229.973c-3.817 1.228-8.774 1.845-14.865 1.845-5.09 0-9.455-.839-13.09-2.525-3.635-1.677-6.634-4.045-8.996-7.093-2.368-3.043-4.118-6.658-5.253-10.841-1.14-4.178-1.707-8.77-1.707-13.771 0-5.632.73-10.589 2.186-14.865 1.45-4.271 3.477-7.813 6.066-10.634s5.662-4.932 9.203-6.343c3.547-1.411 7.364-2.111 11.457-2.111 4.726 0 9.115.611 13.159 1.839 3.665 1.11 6.525 2.284 8.666 3.507v-16.552c-1.03-.414-2.16-.819-3.418-1.204-2.362-.729-5.134-1.386-8.315-1.978-3.187-.592-6.728-.888-10.639-.888-6.456 0-12.498 1.09-18.136 3.27-5.638 2.185-10.545 5.386-14.727 9.618-4.183 4.227-7.477 9.386-9.884 15.477-2.412 6.091-3.615 13.09-3.615 21.001 0 7.906 1.046 14.91 3.137 21 2.092 6.087 5.09 11.246 9.001 15.478 3.906 4.222 8.68 7.428 14.318 9.607 5.633 2.186 12 3.275 19.088 3.275 3.635 0 7.048-.207 10.229-.611 3.182-.409 6.047-.957 8.592-1.638 1.608-.43 3.028-.873 4.37-1.322v-16.059c-1.845.806-4.104 1.645-6.827 2.518z"/>
    <path d="M418.172 194.244c-1.41-4.587-3.433-8.523-6.066-11.793-2.644-3.27-5.929-5.795-9.884-7.571-3.956-1.771-8.435-2.653-13.436-2.653-3.363 0-6.432.404-9.203 1.223-2.772.818-5.12 1.726-7.023 2.732v-27.827h-16.503v94.505c3.275 1.001 7.389 1.908 12.34 2.728 4.952.818 10.16 1.228 15.615 1.228 5.633 0 10.684-.863 15.142-2.589 4.449-1.727 8.247-4.232 11.384-7.502 3.137-3.271 5.544-7.206 7.23-11.793 1.677-4.592 2.516-9.756 2.516-15.477-.001-5.544-.702-10.614-2.112-15.211zm-19.975 32.049c-3.463 4.138-8.228 6.205-14.323 6.205-2.634 0-4.883-.114-6.747-.341s-3.384-.479-4.567-.755v-41.045c1.45-.996 3.384-1.904 5.79-2.723 2.417-.818 4.981-1.228 7.704-1.228 6.008 0 10.388 2.047 13.159 6.136 2.781 4.088 4.162 9.637 4.162 16.636 0 7.275-1.726 12.982-5.178 17.115z"/>
  </g>
</svg>
