<?xml version="1.0" encoding="utf-8"?>
<svg width="133.9" height="133.9" xmlns="http://www.w3.org/2000/svg">
    <path fill="white" d="M 111.55 79.15 C 111.55 83.15 109.25 86.65 104.75 87.45 C 96.95 88.85 80.55 89.65 66.85 89.65 C 53.15 89.65 36.75 88.85 28.95 87.45 C 24.45 86.65 22.15 83.15 22.15 79.15 C 22.15 70.55 22.15 61.95 22.15 53.35 C 22.15 49.35 25.25 45.65 28.95 45.05 C 31.25 44.65 36.65 44.25 40.85 44.25 C 42.45 44.25 43.75 45.45 43.75 47.35 L 43.75 65.45 C 51.85 65.45 58.85 64.95 66.95 64.95 C 75.05 64.95 82.05 65.45 90.15 65.45 L 90.15 47.35 C 90.15 45.45 91.45 44.25 93.05 44.25 C 97.25 44.25 102.65 44.65 104.95 45.05 C 108.75 45.65 111.75 49.35 111.75 53.35 C 111.55 61.95 111.55 70.55 111.55 79.15 Z" />
</svg>